<svg width="3047" height="697" viewBox="0 0 3047 697" fill="none" xmlns="http://www.w3.org/2000/svg">
<path d="M515.632 108C627.552 108 700 138.8 700 278C700 313.5 693.505 371.5 627.552 422L260.5 688.5C252 694.5 245.5 697 228 697C211.036 697 216.099 607.274 195.985 565.948L194 562.177C252.323 519.677 385.392 425.161 486.652 350C562.099 294 558 249 481.366 249H117.5V108H515.632Z" fill="black"/>
<path d="M140.303 1.5H229.065C239.015 1.5 247.37 8.99176 248.45 18.8833L320.082 674.883C321.342 686.422 312.305 696.5 300.697 696.5H211.935C201.985 696.5 193.63 689.008 192.55 679.117L120.918 23.1168C119.658 11.5779 128.695 1.5 140.303 1.5Z" fill="black" stroke="black"/>
<path d="M0 128C0 116.954 8.95431 108 20 108H118V249H20C8.95431 249 0 240.046 0 229V128Z" fill="black"/>
<path d="M1190.25 15.3112C1192.77 6.82232 1200.57 1 1209.43 1H1308.7C1322.08 1 1331.68 13.8692 1327.88 26.6888L1133.25 682.689C1130.73 691.178 1122.93 697 1114.07 697H1014.8C1001.42 697 991.818 684.131 995.622 671.311L1190.25 15.3112Z" fill="black"/>
<rect x="782" y="108" width="700" height="141" rx="20" fill="black"/>
<mask id="mask0_102_2" style="mask-type:alpha" maskUnits="userSpaceOnUse" x="1564" y="1" width="700" height="696">
<rect x="1564" y="1" width="700" height="696" rx="20" fill="#C4C4C4"/>
</mask>
<g mask="url(#mask0_102_2)">
<path d="M1986.29 194.376C1988.78 185.855 1996.6 180 2005.48 180H2104.7C2118.07 180 2127.68 192.872 2123.87 205.692L1982.25 682.693C1979.73 691.18 1971.93 697 1963.08 697H1865.7C1852.36 697 1842.76 684.181 1846.51 671.376L1986.29 194.376Z" fill="black"/>
</g>
<path d="M1641.5 128C1641.5 116.954 1650.45 108 1661.5 108H2244C2255.05 108 2264 116.954 2264 128V229C2264 240.046 2255.05 249 2244 249H1661.5C1650.45 249 1641.5 240.046 1641.5 229V128Z" fill="black"/>
<path d="M1649.31 14.4174C1651.79 5.87537 1659.62 0 1668.51 0H1767.86C1781.18 0 1790.78 12.7865 1787.06 25.5826L1681.69 388.083C1679.21 396.625 1671.38 402.5 1662.49 402.5H1563.14C1549.82 402.5 1540.22 389.714 1543.94 376.917L1649.31 14.4174Z" fill="black"/>
<rect x="2346" y="556.806" width="541" height="140.194" rx="20" fill="black"/>
<rect x="2346" y="108" width="375" height="140" rx="20" fill="black"/>
<path d="M2902.61 17.3104C2904.59 8.0885 2912.74 1.5 2922.17 1.5H3022.24C3034.98 1.5 3044.47 13.2494 3041.8 25.7031L2904.29 665.406C2900.33 683.837 2884.04 697 2865.18 697H2781.74C2769.01 697 2759.52 685.26 2762.18 672.81L2902.61 17.3104Z" fill="black"/>
</svg>
